<svg xmlns="http://www.w3.org/2000/svg" viewBox="0 0 48 48"><defs><style>.cls-1{fill:#201602;}</style></defs><title>Asset 18ldpi</title><g id="Layer_2" data-name="Layer 2"><g id="layer_1-2" data-name="layer 1"><path class="cls-1" d="M47,48H1a1,1,0,0,1-1-1V7A1,1,0,0,1,1,6H7V8H2V46H46V8H41V6h6a1,1,0,0,1,1,1V47A1,1,0,0,1,47,48Z"/><path class="cls-1" d="M24,47a1,1,0,0,1-1-1V36h2v5.53A6,6,0,0,1,29,40H40V2H29a4,4,0,0,0-4,4H23a6,6,0,0,1,6-6H41a1,1,0,0,1,1,1V41a1,1,0,0,1-1,1H29a4,4,0,0,0-4,4A1,1,0,0,1,24,47Z"/><path class="cls-1" d="M25,46H23a4,4,0,0,0-4-4H7a1,1,0,0,1-1-1V1A1,1,0,0,1,7,0H19a6,6,0,0,1,6,6V8H23V6a4,4,0,0,0-4-4H8V40H19A6,6,0,0,1,25,46Z"/><path class="cls-1" d="M24,35A13,13,0,1,1,37,22,13,13,0,0,1,24,35Zm0-24A11,11,0,1,0,35,22,11,11,0,0,0,24,11Z"/><path class="cls-1" d="M24,29a4,4,0,0,1-4-4h2a2,2,0,1,0,2-2,4,4,0,1,1,4-4H26a2,2,0,1,0-2,2,4,4,0,0,1,0,8Z"/><rect class="cls-1" x="23" y="28" width="2" height="3"/><rect class="cls-1" x="23" y="13" width="2" height="3"/><rect class="cls-1" x="30" y="21" width="2" height="2"/><rect class="cls-1" x="16" y="21" width="2" height="2"/></g></g></svg>