<?xml version="1.0" encoding="utf-8"?>
<!-- Svg Vector Icons : http://www.onlinewebfonts.com/icon -->
<!DOCTYPE svg PUBLIC "-//W3C//DTD SVG 1.1//EN" "http://www.w3.org/Graphics/SVG/1.1/DTD/svg11.dtd">
<svg version="1.1" xmlns="http://www.w3.org/2000/svg" xmlns:xlink="http://www.w3.org/1999/xlink" x="0px" y="0px" viewBox="0 0 256 256" enable-background="new 0 0 256 256" xml:space="preserve">
<metadata> Svg Vector Icons : http://www.onlinewebfonts.com/icon </metadata>
<g><g><g><path stroke-width="4" fill-opacity="0" stroke="#000000"  d="M95.2,18.2c-2.6,1-4.9,2.9-6.4,5.5c-1.2,2-1.3,2.7-1.2,5.9c0,2,0.1,4,0.2,4.6c0.1,0.8-6.4,6.8-30.9,28.3L25.8,89.8H22c-3.3,0-4,0.2-6,1.3c-1.2,0.8-2.9,2.3-3.7,3.3c-4.7,6.5-1.9,15.8,5.6,18.4l1.7,0.6l23,52.2l23,52.2l-1.4,2.4c-1.2,2.1-1.4,2.9-1.4,6c0,3.1,0.2,3.9,1.3,5.9c2.5,4.2,6.9,6.4,11.7,6c3.2-0.3,5.2-1.4,7.7-4l2-2.1l51.2-14.6l51.2-14.6l1.5,0.9c1.1,0.6,2.7,0.9,5.2,0.9c3.2,0,3.9-0.1,6-1.4c6-3.7,7.7-11.2,3.8-17l-1.6-2.4l15.6-58.8c8.6-32.3,15.6-58.8,15.6-58.9c0-0.1,1-0.3,2.1-0.5c2.9-0.4,6.3-2.7,8-5.4c3.6-5.7,1.8-13.1-4-16.8c-2.1-1.2-2.8-1.4-6-1.4c-3.1,0-4,0.2-5.9,1.3c-1.2,0.8-2.6,1.9-3.1,2.5l-0.9,1.2L168,37c-30.9-5.4-56.3-9.8-56.4-9.8c-0.2,0-0.7-0.8-1.1-1.8c-2-4.6-5.7-7.3-10.5-7.6C98.2,17.6,96.3,17.8,95.2,18.2z M167.7,41.8c29.6,5.1,54,9.4,54.1,9.4c0.1,0,0.2,0.7,0.1,1.5l-0.1,1.4l-31.2,12.7c-17.1,7-31.3,12.7-31.5,12.7c-0.2,0-1.3-0.8-2.5-1.7c-3.4-2.5-6-3-11.8-2.1c-0.6,0.1-20.5-21.4-35.3-38.1c-0.6-0.7-0.6-1,0.3-2.4c0.6-0.9,1-2,1-2.5c0-0.7,0.2-0.8,1.6-0.6C113.1,32.3,138.1,36.6,167.7,41.8z M98.1,41.4c1.9,0.1,3.5,0,4.9-0.5c2-0.7,2.2-0.7,2.9,0.1s31.2,34.7,33.2,36.9c0.9,1,0.9,1.1-0.3,3.2c-0.7,1.2-1.4,3.4-1.6,4.8l-0.3,2.7L118,96.3L99.1,104l-1.7-1.4c-2.9-2.6-4.4-3.2-8.4-3.2c-3.2,0-3.9,0.1-6,1.4c-1.3,0.9-3,2.5-4,3.8c-1.2,1.8-1.9,2.4-2.6,2.3c-2.1-0.2-40.4-5.9-41.4-6.1c-0.7-0.1-1.2-0.8-1.5-2.3c-0.3-1.2-1.2-3-2-4.1l-1.5-2l13.6-12c7.4-6.6,21.2-18.7,30.5-26.9l16.9-15l2.1,1.2C94.6,40.7,96.3,41.3,98.1,41.4z M223.9,59.8c0.5,0.9-1.1,3.6-17,27.6L189.2,114l-3.1-0.3c-2.2-0.2-3.8-0.1-5.1,0.4l-1.9,0.7l-9.1-10c-5-5.5-9.3-10.4-9.6-10.8c-0.5-0.7-0.4-1.2,0.1-3c0.4-1.2,0.7-3.2,0.6-4.5l-0.1-2.4l30.9-12.6c17-6.9,31.1-12.6,31.2-12.6C223.2,58.8,223.5,59.3,223.9,59.8z M229,64.6c0.2,0.4-26.2,101.4-29.8,114.1c-0.8,2.8-1.9,3.4-2.3,1.2c-0.7-3.4-7-43.4-6.9-43.5c1.8-1,4-3.2,5-5c1.2-1.9,1.3-2.8,1.3-5.9c0-3.3-0.1-3.9-1.6-6.2l-1.6-2.5l2.5-3.9c21.2-32.1,32.4-48.8,32.6-48.8C228.6,64.1,228.9,64.4,229,64.6z M139.9,94.8c0.6,0.8,2.1,2,3.3,2.7c2,1.2,2.8,1.3,5.9,1.3c2.8,0,4-0.2,5.4-1.1l1.8-1.1l8.7,9.7c11.3,12.5,10.3,11.1,9.2,13.1c-0.5,0.9-1.1,1.7-1.4,1.7c-0.5,0-67.3-9.8-70.2-10.3c-1.2-0.2-1.6-0.5-1.6-1.4c0-1,1.4-1.7,16.2-7.7c8.9-3.6,17-7,18.1-7.4C138.1,93.2,138.7,93.2,139.9,94.8z M56.7,109l20,3l0.8,2.5c1.1,3.3,3.1,5.7,6,7.2c1.3,0.7,2.4,1.2,2.5,1.3c0,0-2.4,20.1-5.4,44.6c-3,24.5-5.5,45-5.5,45.6c0,0.9-0.4,1.1-2.7,1.5l-2.7,0.5l-0.7-1.4c-0.4-0.8-10.5-23.7-22.5-50.9l-21.8-49.4l1.5-0.7c2.4-1,4.6-2.9,5.9-5.1c1.2-2,1.3-2.1,2.9-1.8C36,105.9,45.7,107.3,56.7,109z M136.3,120.8c19.6,2.9,35.8,5.3,35.9,5.3c0.1,0,0.4,0.8,0.6,1.8c0.2,1,0.6,2.4,1,3.1c0.6,1.3,0.6,1.4-2.7,4.6c-1.9,1.8-22.2,21.2-45.2,43.1l-41.9,39.9l-2.3-1.7c-1.9-1.4-2.2-1.9-2-2.9c0.1-0.7,2.7-21.3,5.7-45.7c3-24.5,5.6-44.8,5.8-45c0.1-0.2,0.6-0.4,1.1-0.4c1.5,0,5.3-2.9,6.7-5c0.7-1.2,1.4-2.2,1.4-2.2C100.6,115.5,116.7,117.8,136.3,120.8z M182.9,137.4c1.7,0.2,2.2,0.5,2.4,1.3c0.1,0.5,1.6,9.7,3.4,20.4s3.2,20,3.4,20.7c0.2,1.1,0.1,1.3-1.1,1.5c-2.1,0.4-5.2,2.9-6.6,5.4c-1.6,2.8-2.1,6.8-1,9.8c0.4,1.2,0.7,2.2,0.6,2.3c-0.2,0.2-97,27.9-97.1,27.8c0,0-0.2-0.9-0.3-1.9l-0.3-1.8l45.8-43.7l45.9-43.7l1.4,0.7C180.2,136.8,181.7,137.2,182.9,137.4z"/></g></g></g>
</svg>